{"title":"The.Fourth.Kind.2009.DVDRiP.XviD.SWESUB-Zen_Bud.avi","uid":5953818,"size":1467064828,"categoryP":"video","categoryS":"movies","magnet":"?xt=urn:btih:9f31b51cf252cd4d9adc7c2206826580aa5cc423&amp;dn=The.Fourth.Kind.2009.DVDRiP.XviD.SWESUB-Zen_Bud.avi&amp;tr=udp%3A%2F%2Ftracker.openbittorrent.com%3A80&amp;tr=udp%3A%2F%2Fopen.demonii.com%3A1337&amp;tr=udp%3A%2F%2Ftracker.coppersurfer.tk%3A6969&amp;tr=udp%3A%2F%2Fexodus.desync.com%3A6969","seeders":0,"leechers":1,"uploader":"Zen_Bud","files":-1,"time":1289634390,"description":"&quot;&quot;&quot;&quot;&quot;&quot;&quot;&quot; The.Fourth.Kind.2009.DVDRiP.XviD.SWESUB-Zen_Bud.avi &quot;&quot;&quot;&quot;&quot;&quot;&quot;&quot;&quot;\n\nFormat                           : AVI\nFormat profile                   : OpenDML\nFile size                        : 1.37 GiB\nDuration                         : 1h 33mn\nOverall bit rate                 : 2 081 Kbps\nWriting application              : AVI-Mux GUI 1.17.8.3\n\nVideo\n\nFormat                           : MPEG-4 Visual\nCodec ID/Hint                    : XviD\nDuration                         : 1h 33mn\nBit rate                         : 1 944 Kbps\nWidth                            : 688 pixels\nHeight                           : 384 pixels\nDisplay aspect ratio             : 16:9\nStream size                      : 1.28 GiB (93%)\nWriting library                  : XviD 1.2.0.dev47 (UTC 2006-11-01)\n\nAudio\n\nFormat                           : MPEG Audio\nCodec ID/Hint                    : MP3\nDuration                         : 1h 33mn\nBit rate                         : 128 Kbps\nChannel(s)                       : 2 channels\nSampling rate                    : 48.0 KHz\nStream size                      : 86.1 MiB (6%)\nWriting library                  : LAME3.97 \n\n\nA thriller involving an ongoing unsolved mystery in Alaska, where one town has seen an extraordinary number of unexplained disappearances during the past 40 years and there are accusations of a federal cover up. ","torrent":{"xt":"urn:btih:9f31b51cf252cd4d9adc7c2206826580aa5cc423","amp;dn":"The.Fourth.Kind.2009.DVDRiP.XviD.SWESUB-Zen_Bud.avi","amp;tr":["udp%3A%2F%2Ftracker.openbittorrent.com%3A80","udp%3A%2F%2Fopen.demonii.com%3A1337","udp%3A%2F%2Ftracker.coppersurfer.tk%3A6969","udp%3A%2F%2Fexodus.desync.com%3A6969"],"infoHash":"9f31b51cf252cd4d9adc7c2206826580aa5cc423","infoHashBuffer":{"type":"Buffer","data":[159,49,181,28,242,82,205,77,154,220,124,34,6,130,101,128,170,92,196,35]},"announce":[],"urlList":[]}}